# xmcd CD database file
#
# Track frame offsets:
#	150
#	16610
#	41177
#	61270
#	83802
#	107872
#	128775
#	139315
#	163300
#	191360
#	220245
#	239547
#	268087
#	291690
#
# Disc length: 3926 seconds
#
# Revision: 6
# Processed by: cddbd v1.5.2PL0 Copyright (c) Steve Scherf et al.
# Submitted via: CDex 1.70beta3
#
DISCID=d80f540e
DTITLE=松本孝弘 - House Of Strings
DYEAR=2004
DGENRE=Instrumental Rock
TTITLE0=WHITE CHRISTMAS
TTITLE1=いつかのメリークリスマス
TTITLE2=sasanqua～冬の陽
TTITLE3=恋歌
TTITLE4=#1090
TTITLE5=華
TTITLE6=愛のままにわがままに　僕は君だけを傷つけない
TTITLE7=BLUE
TTITLE8=BLACK JACK
TTITLE9=SACRED FIELD～RED SUN～GO FURTHER
TTITLE10=Theme from ULTRAMAN
TTITLE11=Strings of My Soul
TTITLE12=LOVE PHANTOM
TTITLE13=HOLY NIGHT
EXTD=YEAR: 2004
EXTT0=
EXTT1=
EXTT2=
EXTT3=
EXTT4=
EXTT5=
EXTT6=
EXTT7=
EXTT8=
EXTT9=
EXTT10=
EXTT11=
EXTT12=
EXTT13=
PLAYORDER=
